<?xml version="1.0" encoding="UTF-8"?>
<svg id="Layer_2" data-name="Layer 2" xmlns="http://www.w3.org/2000/svg" viewBox="0 0 203.88 58.61">
  <defs>
    <style>
      .cls-1 {
        fill: #fff;
      }
    </style>
  </defs>
  <path class="cls-1" d="m29.69,38.9c-.06,1.82-.52,3.89-1.56,4.86-2.33,1.23-5.96,1.95-9.6,1.95C6.61,45.71,0,38.64,0,26.91,0,16.92,6.81,3.25,24.05,3.25c4.28,0,8.04,1.23,9.01,2.27-.06,1.88-.97,4.47-3.5,3.7-1.36-.39-3.44-.84-5.38-.84-8.62,0-16.27,6.68-16.27,18.28,0,7.72,4.28,13.94,12.58,13.94,3.83,0,6.87-.91,9.08-1.75l.13.07Z"/>
  <path class="cls-1" d="m31.57,36.25c0-4.02,1.43-10.89,6.29-15.75,4.08-4.02,8.95-5.06,13.36-5.06,2.98,0,6.81.91,9.27,1.43-.58,2.72-2.14,12.97-2.92,19.58-.26,2.66-.52,6.48-.39,7.97-1.88.84-5.38,1.1-6.35,1.1-.52,0-.58-2.85-.32-5.9.06-.91.26-2.2.32-2.92-2.98,5.19-8.17,8.82-13.29,8.82-3.57,0-5.96-2.92-5.96-9.21v-.06Zm9.66,3.44c3.57,0,9.79-6.35,11.48-17.12.06-.65.19-1.23.32-1.82-.71-.26-1.88-.52-2.98-.52-2.66,0-5.32.78-7.65,3.89-2.53,3.5-3.5,7.84-3.5,11.22,0,2.72.84,4.34,2.27,4.34h.06Z"/>
  <path class="cls-1" d="m61,21.59c.06-1.69,1.17-4.6,2.33-4.73.84-.06,1.88-.06,2.85-.06C68,3.05,73.19.39,78.64.39c2.07,0,3.89.71,4.6,1.36.19,1.3-.45,3.76-1.95,3.96-.52-.19-1.43-.39-2.2-.39-2.72,0-4.6,1.82-5.9,11.48,2.53,0,5.51.06,6.94-.2-.32,1.88-.84,3.5-2.07,4.34-.91.58-2.33.65-5.45.65-1.17,9.14-1.88,14.78-2.85,21.59-1.94,12.71-7.39,15.43-12.38,15.43-1.69,0-4.08-.58-4.73-1.17-1.69-1.43-.71-4.21.06-4.99,1.04.45,2.53.84,3.7.84,3.63,0,5.32-2.98,6.48-11.15,1.17-7.71,2.2-15.88,2.79-20.55h-4.67Z"/>
  <path class="cls-1" d="m92.45,15.43c4.8,0,7.46,2.79,7.46,6.48,0,7.85-10.18,10.76-16.27,11.15-.06.39-.06.91-.06,1.3,0,3.44,1.43,5.58,4.73,5.58,3.95,0,7.07-2.27,9.08-4.15.45.39.78,1.23.78,2.27,0,1.3-.39,2.46-1.1,3.24-1.94,2.14-5.64,4.21-11.09,4.21-6.81,0-9.6-4.41-9.6-10.96,0-9.34,6.03-19.13,16.01-19.13h.06Zm-1.3,4.41c-3.05,0-6.16,3.18-7.2,8.69,6.74-.52,9.73-3.5,9.73-6.16,0-1.23-.78-2.53-2.46-2.53h-.06Z"/>
  <path class="cls-1" d="m117.27,36.76c.45,1.43-.13,4.41-1.36,5.58-2.01,2.01-4.73,3.18-8.1,3.18-3.89,0-6.16-2.72-5.06-9.92.71-4.54,1.62-9.73,2.27-14h-4.21c0-1.62,1.04-4.8,2.46-4.8h2.53c.97-5.06,2.14-6.74,3.18-7.33.91-.52,3.57-1.17,5.32-1.23-.45,2.4-.97,5.58-1.56,8.56,4.15,0,6.22-.07,7.52-.2-.26,1.88-.91,3.63-2.2,4.41-1.04.58-3.05.58-6.16.58-.78,4.67-1.88,11.99-2.2,14.46-.39,2.59.19,3.83,1.49,3.83,1.69,0,3.96-1.23,5.96-3.11h.13Z"/>
  <path class="cls-1" d="m134.65,15.43c4.8,0,7.46,2.79,7.46,6.48,0,7.85-10.18,10.76-16.27,11.15-.06.39-.06.91-.06,1.3,0,3.44,1.43,5.58,4.73,5.58,3.95,0,7.07-2.27,9.08-4.15.45.39.78,1.23.78,2.27,0,1.3-.39,2.46-1.1,3.24-1.94,2.14-5.64,4.21-11.09,4.21-6.81,0-9.6-4.41-9.6-10.96,0-9.34,6.03-19.13,16.01-19.13h.06Zm-1.3,4.41c-3.05,0-6.16,3.18-7.2,8.69,6.74-.52,9.73-3.5,9.73-6.16,0-1.23-.78-2.53-2.46-2.53h-.06Z"/>
  <path class="cls-1" d="m152.28,25.16c3.37-7.52,7.46-9.73,10.24-9.73.91,0,2.07.52,2.59,1.1.19,1.95-1.3,5.58-2.53,6.94-.78-.39-1.69-.71-2.66-.71-2.07,0-7,3.57-9.79,19.19-.26,1.36-.65,1.88-1.3,2.27-1.04.52-4.73.97-6.55,1.04,1.04-5.25,2.59-15.43,3.31-21.78.19-1.82.32-5.12.13-6.55,1.1-.52,5.32-1.49,6.29-1.49.52,0,1.04,3.37.06,9.73h.19Z"/>
  <path class="cls-1" d="m173.09,15.43c.71,0,.84.84.26,4.73-1.36,9.85-2.27,17.44-3.05,21.78-.19,1.17-.45,1.75-.97,2.08-.65.45-3.83,1.17-6.81,1.23.65-4.15,1.82-11.09,2.66-17.05.91-6.87,1.23-10.24,1.17-11.35.78-.39,5.9-1.43,6.68-1.43h.06Zm4.73-13.62c.45.39.45.65-.13,1.36-2.59,3.05-5.32,6.81-6.87,8.95-1.17-.2-1.75-.58-2.4-1.04-.39-.26-.58-.71-.19-1.82.91-2.59,3.18-9.21,4.93-9.27,1.88-.06,3.7.97,4.67,1.82Z"/>
  <path class="cls-1" d="m174.97,36.25c0-4.02,1.43-10.89,6.29-15.75,4.08-4.02,8.95-5.06,13.36-5.06,2.98,0,6.81.91,9.27,1.43-.58,2.72-2.14,12.97-2.92,19.58-.26,2.66-.52,6.48-.39,7.97-1.88.84-5.38,1.1-6.35,1.1-.52,0-.58-2.85-.32-5.9.06-.91.26-2.2.32-2.92-2.98,5.19-8.17,8.82-13.29,8.82-3.57,0-5.96-2.92-5.96-9.21v-.06Zm9.66,3.44c3.57,0,9.79-6.35,11.48-17.12.06-.65.19-1.23.32-1.82-.71-.26-1.88-.52-2.98-.52-2.66,0-5.32.78-7.65,3.89-2.53,3.5-3.5,7.84-3.5,11.22,0,2.72.84,4.34,2.27,4.34h.06Z"/>
</svg>